# xmcd CD database file
#
# Track frame offsets:
#	150
#	15231
#	33535
#	51848
#	70704
#	83261
#	98403
#	111298
#	127088
#	144747
#	161430
#
# Disc length: 2402 seconds
#
# Revision: 0
# Processed by: cddbd v1.5.2PL0 Copyright (c) Steve Scherf et al.
# Submitted via: CDex 1.95
#
DISCID=8209600b
DTITLE=Britni Hoover - Country Strong
DYEAR=2007
DGENRE=Country
TTITLE0=What A Little Lonely Can Do
TTITLE1=Dreamer
TTITLE2=Country Strong
TTITLE3=I'm Waiting For You To Come Over
TTITLE4=Love Overdue
TTITLE5=I Would
TTITLE6=If I Know Love
TTITLE7=This Is Really Happening
TTITLE8=While It Lasts
TTITLE9=A Little Bit
TTITLE10=What You Left Behind
EXTD=YEAR: 2007
EXTT0=
EXTT1=
EXTT2=
EXTT3=
EXTT4=
EXTT5=
EXTT6=
EXTT7=
EXTT8=
EXTT9=
EXTT10=
PLAYORDER=
